<?xml version="1.0" encoding="utf-8"?>
<!-- Generator: Adobe Illustrator 16.0.0, SVG Export Plug-In . SVG Version: 6.00 Build 0)  -->
<!DOCTYPE svg PUBLIC "-//W3C//DTD SVG 1.1//EN" "http://www.w3.org/Graphics/SVG/1.1/DTD/svg11.dtd">
<svg version="1.1" id="Layer_1" xmlns="http://www.w3.org/2000/svg" xmlns:xlink="http://www.w3.org/1999/xlink" x="0px" y="0px"
	 width="248.263px" height="59.15px" viewBox="0 0 248.263 59.15" enable-background="new 0 0 248.263 59.15" xml:space="preserve">
<path fill-rule="evenodd" clip-rule="evenodd" fill="#EC272C" d="M1124.685-130.903l21.749,2.518c0,0,19.358-4.539,18.974-21.213
	c0,0,14.976,22.069-3.823,42.012c0,0-31.387,18.145-49.369-16.02l-2.941-14.549l6.865-8.664l10.878-4.219L1124.685-130.903z"/>
<g>
	<defs>
		<path id="SVGID_1_" d="M1160.969-154.933c13.338,13.341,13.338,34.965-0.001,48.304c-13.336,13.336-34.962,13.336-48.298,0
			c-13.34-13.339-13.339-34.963,0-48.302C1126.006-168.269,1147.632-168.27,1160.969-154.933z"/>
	</defs>
	<use xlink:href="#SVGID_1_"  overflow="visible" fill-rule="evenodd" clip-rule="evenodd" fill="#EC2729"/>
	<clipPath id="SVGID_2_">
		<use xlink:href="#SVGID_1_"  overflow="visible"/>
	</clipPath>
	<g clip-path="url(#SVGID_2_)">
		<defs>
			<path id="SVGID_3_" d="M1108.646-150.096c0,0,14.001-9.236,18.936-4.162c3.413,3.509,4.232,8.843,5.46,13.345
				c0.648,2.382,1.495,4.697,2.505,6.949c0.761,1.693,1.575,3.574,3.328,4.439c1.476,0.729,3.133,0.853,4.749,0.903
				c1.675,0.053,3.368,0.303,5.042,0.167c2.518-0.204,4.811-1.86,6.83-3.244c1.786-1.224,3.395-2.682,4.924-4.209
				c2.348-2.345,4.596-4.831,6.484-7.564c0.07-0.099,1.065-1.373,0.996-1.49c0.001,0.001,7.205,12.204,0.73,26.281
				c-3.079,6.693-3.74,7.433-4.685,8.654c-1.044,1.345-2.93,3.339-6.372,6.371C1145.326-92.86,1118.88-96.163,1108.646-150.096z"/>
		</defs>
		<use xlink:href="#SVGID_3_"  overflow="visible" fill-rule="evenodd" clip-rule="evenodd" fill="#EC2729"/>
		<clipPath id="SVGID_4_">
			<use xlink:href="#SVGID_3_"  overflow="visible"/>
		</clipPath>
		<linearGradient id="SVGID_5_" gradientUnits="userSpaceOnUse" x1="1112.5913" y1="-141.168" x2="1127.8824" y2="-131.026">
			<stop  offset="0.0215" style="stop-color:#000000;stop-opacity:0.5"/>
			<stop  offset="1" style="stop-color:#000000;stop-opacity:0"/>
		</linearGradient>
		<path clip-path="url(#SVGID_4_)" fill="url(#SVGID_5_)" d="M1110.962-134.979c0,0,6.564,18.886,21.188,25.767l10.129-19.654
			c0,0-2.77-8.877-17.478-23.547c-0.419,0.879-11.115,8.582-11.542,9.457c-0.46,0.944-1.097,2.62-1.481,4.004
			C1111.492-137.927,1110.962-134.979,1110.962-134.979z"/>
		<linearGradient id="SVGID_6_" gradientUnits="userSpaceOnUse" x1="1172.6626" y1="-119.9028" x2="1136.5459" y2="-120.6106">
			<stop  offset="0.0215" style="stop-color:#000000;stop-opacity:0.5"/>
			<stop  offset="1" style="stop-color:#000000;stop-opacity:0"/>
		</linearGradient>
		<path clip-path="url(#SVGID_4_)" fill="url(#SVGID_6_)" d="M1169.104-146.591c0,0-35.999,9.698-41.522,13.994
			c0,0,0.962,37.488-0.652,38.416c0,0,36.59-8.633,42.174-19.453C1169.103-113.634,1175.218-133.686,1169.104-146.591z"/>
	</g>
	<g clip-path="url(#SVGID_2_)">
		<defs>
			<path id="SVGID_7_" d="M1108.646-150.096c0,0,1.232,18.307,15.206,32.282c13.976,13.975,34.936,18.134,45.679-3.128
				c0,0-0.314,1.961-1.873,4.856c-4.137,7.692-14.817,21.522-34.878,19.211c-2.889-0.334-5.649-1.256-8.96-2.316
				c0,0-2.615-0.696-5.775-3.05C1109.513-108.6,1095.692-124.291,1108.646-150.096z"/>
		</defs>
		<use xlink:href="#SVGID_7_"  overflow="visible" fill-rule="evenodd" clip-rule="evenodd" fill="#EC2726"/>
		<clipPath id="SVGID_8_">
			<use xlink:href="#SVGID_7_"  overflow="visible"/>
		</clipPath>
		<linearGradient id="SVGID_9_" gradientUnits="userSpaceOnUse" x1="1120.686" y1="-114.7588" x2="1135.0249" y2="-106.0615">
			<stop  offset="0.0215" style="stop-color:#000000;stop-opacity:0.5"/>
			<stop  offset="1" style="stop-color:#000000;stop-opacity:0"/>
		</linearGradient>
		<path clip-path="url(#SVGID_8_)" fill="url(#SVGID_9_)" d="M1115.332-103.654c0,0,7.813,6.801,16.178,7.037l6.879-11.935
			c0,0-8.499-5.76-13.684-10.693c-0.809-0.77-2.007-1.149-2.767-2.021c-2.489-2.848-5.35-5.616-9.097-13.042
			c0,0-0.116,3.681-0.231,6.367C1112.411-123.335,1112.434-115.368,1115.332-103.654z"/>
	</g>
	<g clip-path="url(#SVGID_2_)">
		<defs>
			<path id="SVGID_10_" d="M1119.193-101.105c-6.15-4.884-6.544-19.033-5.898-26.02c0.906-9.812,6.09-19.251,14.777-24.599
				c7.546-4.646,18.676-6.615,28.688-7.847l-9.198-4.368l-8.426-1.744l-6.83,0.748c0,0-2.259,0.011-4.984,0.647
				c-3.823,0.895-23.241,7.582-24.655,33.412c-0.431,7.872,2.574,15.892,7.406,21.923
				C1112.682-105.697,1116.029-103.617,1119.193-101.105z"/>
		</defs>
		<use xlink:href="#SVGID_10_"  overflow="visible" fill-rule="evenodd" clip-rule="evenodd" fill="#EC2726"/>
		<clipPath id="SVGID_11_">
			<use xlink:href="#SVGID_10_"  overflow="visible"/>
		</clipPath>
		<linearGradient id="SVGID_12_" gradientUnits="userSpaceOnUse" x1="1108.4897" y1="-112.9453" x2="1111.3253" y2="-143.5891">
			<stop  offset="0.0215" style="stop-color:#000000;stop-opacity:0.5"/>
			<stop  offset="1" style="stop-color:#000000;stop-opacity:0"/>
		</linearGradient>
		<path clip-path="url(#SVGID_11_)" fill="url(#SVGID_12_)" d="M1116.779-100.441c-0.001,0,2.689,1.268,2.729,0
			c0.021-0.686-2.524-3.974-2.616-4.375c-0.588-2.532-2.419-7.441-2.871-12.719c-0.303-3.573-0.468-7.361-0.345-10.634
			c0.123-3.271,5.378-10.113,6.223-11.622l-20.105-10.559C1099.792-150.349,1095.299-117.673,1116.779-100.441z"/>
	</g>
	<g clip-path="url(#SVGID_2_)">
		<path fill="#FFFFFF" d="M1146.753-131.147c-0.176,1.519-1.563,2.618-3.081,2.442l-16.226-1.878
			c-1.519-0.176-2.618-1.563-2.441-3.082l1.879-16.226c0.176-1.519,1.563-2.618,3.081-2.442l16.226,1.878
			c1.519,0.176,2.618,1.563,2.441,3.082L1146.753-131.147z"/>
	</g>
</g>
<g>
	<defs>
		<circle id="SVGID_13_" cx="1134.933" cy="151.827" r="35.861"/>
	</defs>
	<use xlink:href="#SVGID_13_"  overflow="visible" fill="#DA1F26"/>
	<clipPath id="SVGID_14_">
		<use xlink:href="#SVGID_13_"  overflow="visible"/>
	</clipPath>
	<linearGradient id="SVGID_15_" gradientUnits="userSpaceOnUse" x1="1171.4312" y1="149.167" x2="1134.6868" y2="180.9184">
		<stop  offset="0.0215" style="stop-color:#000000;stop-opacity:0.5"/>
		<stop  offset="1" style="stop-color:#000000;stop-opacity:0"/>
	</linearGradient>
	<polygon clip-path="url(#SVGID_14_)" fill="url(#SVGID_15_)" points="1146.26,133.336 1106.18,185.227 1155.386,200.612 
		1177.348,152.818 1166.784,140.286 	"/>
	<linearGradient id="SVGID_16_" gradientUnits="userSpaceOnUse" x1="1136.186" y1="96.2959" x2="1117.6444" y2="139.4006">
		<stop  offset="0.0215" style="stop-color:#000000;stop-opacity:0.5"/>
		<stop  offset="1" style="stop-color:#000000;stop-opacity:0"/>
	</linearGradient>
	<path clip-path="url(#SVGID_14_)" fill="url(#SVGID_16_)" d="M1093,165.745l36.532-8.779l11.12-28.356l17.514-20.571
		c0,0-17.514,0-18.626,0.277c-1.112,0.278-38.364,6.534-38.364,6.534L1093,165.745z"/>
</g>
<rect x="407.417" y="410.579" fill="#E11F26" width="25.546" height="26.939"/>
<rect x="443.414" y="410.579" fill="#F04E41" width="25.545" height="26.939"/>
<rect x="479.875" y="410.579" fill="#E1202A" width="25.546" height="26.939"/>
<rect x="517.499" y="410.579" fill="#E51F2F" width="25.546" height="26.939"/>
<g>
	<circle fill="#E51F2F" cx="1134.399" cy="9.53" r="30.097"/>
	<rect x="1122.871" y="-1.997" fill="#FFFFFF" width="23.054" height="23.053"/>
	
		<linearGradient id="SVGID_17_" gradientUnits="userSpaceOnUse" x1="765.8989" y1="343.5781" x2="768.3741" y2="325.4815" gradientTransform="matrix(-1 0 0 -1 1881.8291 346.709)">
		<stop  offset="0.0215" style="stop-color:#000000;stop-opacity:0.5"/>
		<stop  offset="1" style="stop-color:#000000;stop-opacity:0"/>
	</linearGradient>
	<path fill="url(#SVGID_17_)" d="M1122.871-1.997v23.053l-18.063,0.343c0,0-1.261-14.593,7.2-25.909"/>
	<path fill="#E51F2F" d="M1115.914-14.222c0,0-6.629,4.674-9.994,13.998c-1.99,5.508-3.974,11.21-2.518,21.032
		c0,0,7.775-18.317,19.469-22.804"/>
	
		<linearGradient id="SVGID_18_" gradientUnits="userSpaceOnUse" x1="951.5522" y1="270.8975" x2="954.0273" y2="252.8015" gradientTransform="matrix(1 0 0 1 201.3105 -254.8115)">
		<stop  offset="0.0215" style="stop-color:#000000;stop-opacity:0.5"/>
		<stop  offset="1" style="stop-color:#000000;stop-opacity:0"/>
	</linearGradient>
	<path fill="url(#SVGID_18_)" d="M1145.923,21.214V-1.839l18.063-0.342c0,0,1.261,14.593-7.199,25.909"/>
	<path fill="#E51F2F" d="M1152.879,33.439c0,0,6.63-4.674,9.995-13.998c1.989-5.507,3.974-11.209,2.519-21.031
		c0,0-7.776,18.316-19.47,22.804"/>
</g>
<g>
	<path fill="#E51F2F" d="M925.064-287.268c0.039-0.065,0.078-0.129,0.117-0.194c1.854-3.071,2.324-6.149,2.217-8.73
		c-0.057-1.974-0.465-3.94-1.229-5.795c-0.201-0.499-0.345-0.778-0.345-0.778v0.002c-0.785-1.648-1.855-3.193-3.219-4.558
		c-6.406-6.405-16.791-6.405-23.197,0.002c-0.445,0.444-0.849,0.916-1.232,1.398c0-0.008,0-0.02,0-0.02
		c-0.055,0.082-0.104,0.147-0.159,0.226c-0.23,0.299-0.452,0.601-0.659,0.91c-0.266,0.368-0.511,0.729-0.729,1.163
		c-0.084,0.168-0.178,0.36-0.273,0.56c-0.069,0.14-0.148,0.272-0.213,0.414c-0.203,0.436-0.381,0.88-0.544,1.325
		c-0.129,0.331-0.237,0.644-0.306,0.904c-0.004,0.012-0.005,0.023-0.009,0.037c-1.252,4.219-0.765,8.836,1.446,12.744
		c0.055,0.099,0.107,0.195,0.162,0.289c0.044,0.074,0.082,0.149,0.127,0.222c0.92,1.555,1.758,2.396,1.758,2.396
		c0.15,0.154,0.305,0.296,0.46,0.445c0.059,0.061,0.11,0.123,0.169,0.185c6.406,6.404,16.793,6.406,23.199-0.002
		c0.914-0.915,1.693-1.911,2.347-2.964c0.013-0.02,0.026-0.041,0.042-0.062C925.017-287.189,925.039-287.228,925.064-287.268z"/>
	<linearGradient id="SVGID_19_" gradientUnits="userSpaceOnUse" x1="902.3228" y1="-299.6904" x2="897.381" y2="-293.7521">
		<stop  offset="0.0215" style="stop-color:#000000;stop-opacity:0.5"/>
		<stop  offset="1" style="stop-color:#000000;stop-opacity:0"/>
	</linearGradient>
	<path fill="url(#SVGID_19_)" d="M898.05-305.348c0,0,0.971,8.28,3.867,13.993l-2.902,6.836c0,0-7.825-8.154-2.51-18.873
		c0.416-0.838,0.925-1.452,1.511-2.323L898.05-305.348z"/>
	<path fill="#B21F34" d="M902.409-301.217c0,0,1.408-1.893,3.78-3.362c3.954-2.447,13.768-1.488,20.354,3.593
		c0,0-2.649-9.396-13.3-10.985c-0.778-0.117-1.51-0.126-2.375-0.152c0,0-7.166,3.997-8.46,11.138"/>
	<linearGradient id="SVGID_20_" gradientUnits="userSpaceOnUse" x1="902.8726" y1="-306.1255" x2="913.2636" y2="-308.1356">
		<stop  offset="0.0215" style="stop-color:#000000;stop-opacity:0.5"/>
		<stop  offset="1" style="stop-color:#000000;stop-opacity:0"/>
	</linearGradient>
	<path fill="url(#SVGID_20_)" d="M902.828-301.723c0,0,1.373-1.375,2.557-2.315c0.932-0.742,3.299-2.045,7.514-1.81l3.461-5.388
		c0,0-2.668-0.839-5.18-0.889l-4.934,2.399l-4.943,4.623L902.828-301.723z"/>
	<path fill="#E11F26" d="M901.917-291.355c0,0-4.239-6.03-4.102-14.096c0,0,4.092-6.675,13.363-6.674c0,0-2.695-0.001-9.262,12.036
		C900.099-296.753,900.855-293.532,901.917-291.355z"/>
	
		<linearGradient id="SVGID_21_" gradientUnits="userSpaceOnUse" x1="590.7583" y1="718.3242" x2="585.8168" y2="724.2621" gradientTransform="matrix(-1 0 0 -1 1509.875 427.2461)">
		<stop  offset="0.0215" style="stop-color:#000000;stop-opacity:0.5"/>
		<stop  offset="1" style="stop-color:#000000;stop-opacity:0"/>
	</linearGradient>
	<path fill="url(#SVGID_21_)" d="M924.028-286.187c0,0-0.972-8.281-3.867-13.994l2.901-6.836c0,0,7.826,8.154,2.511,18.873
		c-0.416,0.838-0.925,1.452-1.511,2.323L924.028-286.187z"/>
	<path fill="#B21F34" d="M919.669-290.319c0,0-1.408,1.893-3.781,3.362c-3.953,2.447-13.768,1.488-20.354-3.593
		c0,0,2.648,9.396,13.301,10.985c0.777,0.117,2.373,0.152,2.373,0.152s7.167-3.997,8.461-11.138"/>
	
		<linearGradient id="SVGID_22_" gradientUnits="userSpaceOnUse" x1="590.7256" y1="712.4219" x2="601.1169" y2="710.4117" gradientTransform="matrix(-1 0 0 -1 1509.875 427.2461)">
		<stop  offset="0.0215" style="stop-color:#000000;stop-opacity:0.5"/>
		<stop  offset="1" style="stop-color:#000000;stop-opacity:0"/>
	</linearGradient>
	<path fill="url(#SVGID_22_)" d="M919.246-289.821c0,0-1.385,1.529-2.568,2.47c-0.932,0.741-3.193,1.901-7.407,1.666l-3.563,5.846
		c0,0,2.669,0.84,5.18,0.889l4.934-2.399l4.944-4.623L919.246-289.821z"/>
	<path fill="#E11F26" d="M920.161-300.181c0,0,4.239,6.03,4.101,14.096c0,0-4.091,6.675-13.363,6.674c0,0,2.696,0.001,9.262-12.036
		C921.978-294.783,921.224-298.003,920.161-300.181z"/>
	<circle fill="#FFFFFF" cx="911.005" cy="-295.833" r="10.081"/>
</g>
<text transform="matrix(1 0 0 1 1183.7036 -114.7524)"><tspan x="0" y="0" fill="#454545" font-family="'PierSans'" font-size="43.0756">Omni</tspan><tspan x="111.563" y="0" fill="#BF212B" font-family="'PierSans'" font-size="43.0756">Pay</tspan></text>
<g>
	
		<text transform="matrix(1 0 0 1 1181.2612 168.1826)" fill="#454545" stroke="#454545" stroke-width="1.3155" stroke-miterlimit="10" font-family="'Campton-LightDEMO'" font-size="46.0438">OmniPay</text>
</g>
<g>
	
		<text transform="matrix(1 0 0 1 1181.2612 270.9482)" fill="#454545" font-family="'PierSans'" font-size="46.0438" letter-spacing="1">OmniPay</text>
</g>
<g>
	<g>
		<path fill="#E51F2F" d="M26.294,0C12.256,0,0.874,11.381,0.874,25.42c0,14.042,11.382,25.419,25.42,25.419
			c14.038,0,25.418-11.377,25.418-25.419C51.712,11.381,40.332,0,26.294,0z M26.294,37.927c-6.907,0-12.506-5.6-12.506-12.506
			c0-6.91,5.599-12.507,12.506-12.507c6.906,0,12.508,5.598,12.508,12.507C38.803,32.327,33.201,37.927,26.294,37.927z"/>
		<linearGradient id="SVGID_23_" gradientUnits="userSpaceOnUse" x1="41.2734" y1="33.5879" x2="43.3262" y2="18.5792">
			<stop  offset="0.0215" style="stop-color:#000000;stop-opacity:0.5"/>
			<stop  offset="1" style="stop-color:#000000;stop-opacity:0"/>
		</linearGradient>
		<path fill="url(#SVGID_23_)" d="M31.835,36.628c0,0,3.271-1.396,5.162-4.769c1.818-3.242,3.038-7.891-0.187-13.259h14.886
			c0,0,1.13,11.925-6.016,21.482"/>
		<path fill="#E51F2F" d="M40.276,45.614c1.336-1.237,2.864-2.073,4.382-3.046c1.69-1.083,2.794-2.923,3.859-4.574
			c1.108-1.715,2.063-3.526,2.737-5.437c0.761-2.146,1.023-4.4,1.121-6.664c0.138-3.145,0.118-6.921,0.072-7.292
			c-6.839,14.626-20.612,18.028-20.612,18.028"/>
		
			<linearGradient id="SVGID_24_" gradientUnits="userSpaceOnUse" x1="1870.6226" y1="329.5879" x2="1872.6754" y2="314.5792" gradientTransform="matrix(-1 0 0 -1 1881.8291 346.709)">
			<stop  offset="0.0215" style="stop-color:#000000;stop-opacity:0.5"/>
			<stop  offset="1" style="stop-color:#000000;stop-opacity:0"/>
		</linearGradient>
		<path fill="url(#SVGID_24_)" d="M20.646,14.08c0,0-3.271,1.396-5.162,4.769c-1.817,3.243-3.038,7.89,0.186,13.259H0.785
			c0,0-1.13-11.926,6.016-21.482"/>
		<path fill="#E51F2F" d="M10.682,5.359C4.998,9.002,0.382,18.382,0.106,24.815c-0.138,3.146-0.118,6.92-0.072,7.292
			C6.875,17.481,20.646,14.08,20.646,14.08"/>
	</g>
	<g>
		<g>
			<path fill="#E3212F" d="M106.048,28.148V45.78h-6.125V29.853c0-4.315-2.557-6.925-6.712-6.925
				c-4.848,0.16-7.777,3.889-7.777,8.842v14.01h-6.126V29.853c0-4.315-2.503-6.925-6.658-6.925c-4.901,0.16-7.884,3.889-7.884,8.842
				v14.01h-6.073V17.441h6.073v5.487c1.971-3.995,5.593-5.7,10.281-5.7c5.061,0,8.523,2.503,9.854,6.818
				c1.811-4.741,5.593-6.818,10.76-6.818C102.159,17.229,106.048,21.383,106.048,28.148z"/>
			<path fill="#E3212F" d="M140.03,28.148V45.78h-6.126V29.853c0-4.262-2.557-6.872-6.818-6.872
				c-4.688,0.053-7.618,3.303-8.043,7.724V45.78h-6.126V17.441h6.126v5.434c2.024-3.942,5.646-5.646,10.44-5.646
				C136.088,17.229,140.03,21.383,140.03,28.148z"/>
			<path fill="#E3212F" d="M153.505,9.345c0,2.131-1.545,3.675-3.569,3.675c-2.024,0-3.569-1.544-3.569-3.675
				c0-2.184,1.545-3.729,3.569-3.729C151.96,5.616,153.505,7.161,153.505,9.345z M146.9,45.78V17.441h6.073V45.78H146.9z"/>
			<path fill="#454545" d="M175.93,8.492c9.375,0,14.755,4.635,14.755,12.731c0,8.417-5.38,13.317-14.755,13.317h-8.576v11.24
				h-6.286V8.492H175.93z M167.354,28.894h8.31c5.753,0,9.002-2.45,9.002-7.511c0-4.901-3.25-7.245-9.002-7.245h-8.31V28.894z"/>
			<path fill="#454545" d="M212.204,42.318c-2.024,2.503-5.273,3.729-9.375,3.729c-6.125,0-9.961-3.782-9.961-8.789
				c0-5.167,3.889-8.47,10.707-8.523h8.576v-0.852c0-3.569-2.291-5.7-6.765-5.7c-2.717,0-5.54,0.959-8.363,2.877l-2.503-4.262
				c3.942-2.344,6.818-3.569,12.198-3.569c7.298,0,11.399,3.729,11.453,9.961l0.053,18.591h-6.019V42.318z M212.15,35.819v-2.61
				h-7.671c-3.995,0-5.859,1.065-5.859,3.782c0,2.557,2.078,4.208,5.487,4.208C208.475,41.199,211.831,38.909,212.15,35.819z"/>
			<path fill="#454545" d="M235.375,49.669c-1.758,4.475-4.954,6.712-9.216,6.712c-2.557,0-4.581-0.746-6.552-2.397l2.61-4.741
				c1.332,0.959,2.397,1.385,3.676,1.385c1.864,0,3.356-1.012,4.314-3.143l0.959-2.131l-11.719-27.913h6.339l8.47,21.467
				l7.883-21.467h6.126L235.375,49.669z"/>
		</g>
	</g>
</g>
<g>
	<text transform="matrix(1 0 0 1 1172.3853 33.6377)"><tspan x="0" y="0" fill="#E3212F" font-family="'PierSans'" font-size="63.0657">mni</tspan><tspan x="137.607" y="0" fill="#454545" font-family="'PierSans'" font-size="63.0657">Pay</tspan></text>
</g>
<text transform="matrix(1 0 0 1 878.5522 -200.1494)" font-family="'Campton-LightDEMO'" font-size="27.5827" letter-spacing="1">OMNIPAY</text>
<circle fill="none" stroke="#E3212F" stroke-width="0.75" stroke-miterlimit="10" cx="954.438" cy="-234.461" r="6.172"/>
<path fill="none" stroke="#E3212F" stroke-width="0.75" stroke-miterlimit="10" d="M954.438-225.203
	c-5.113,0-9.258-4.145-9.258-9.258s4.145-9.258,9.258-9.258"/>
<path fill="none" stroke="#E3212F" stroke-width="0.75" stroke-miterlimit="10" d="M958.295-226.385
	c2.767-1.601,4.629-4.589,4.629-8.016s-1.862-6.415-4.629-8.017"/>
<g>
	<g>
		<defs>
			<circle id="SVGID_25_" cx="1133.975" cy="255.915" r="35.861"/>
		</defs>
		<use xlink:href="#SVGID_25_"  overflow="visible" fill="#DA1F26"/>
		<clipPath id="SVGID_26_">
			<use xlink:href="#SVGID_25_"  overflow="visible"/>
		</clipPath>
		
			<linearGradient id="SVGID_27_" gradientUnits="userSpaceOnUse" x1="792.4585" y1="301.917" x2="834.2549" y2="276.0602" gradientTransform="matrix(-1 0 0 -1 1959.0791 570.5918)">
			<stop  offset="0" style="stop-color:#000000;stop-opacity:0"/>
			<stop  offset="0.9785" style="stop-color:#000000;stop-opacity:0.5"/>
		</linearGradient>
		<path clip-path="url(#SVGID_26_)" fill="url(#SVGID_27_)" d="M1169.179,269.633l-12.141-10.362l-26.201,29.311l-10.806,1.183
			v5.628c0,0,28.423,0.739,30.05-1.185c1.628-1.926,17.319-17.912,17.319-17.912L1169.179,269.633z"/>
	</g>
	<rect x="1120.051" y="243.103" fill="#FFFFFF" width="27.847" height="27.847"/>
	<g>
		<defs>
			<path id="SVGID_28_" d="M1154.744,226.688c0,0-12.994-2.557-23.272,2.234c-5.203,2.426-11.42,7.43-11.42,14.18
				c0,20.088,0,27.847,0,27.847h27.847v-27.847c0,0,12.911,2.666,12.84,18.048c-0.065,13.947-11.297,29.271-32.06,29.271
				c-2.289,0-3.862,0.18-6.063-0.482c-5.677-1.704-11.59-5.916-15.54-10.307c-4.527-5.033-7.205-10.754-8.609-17.92
				c-1.031-5.264-0.473-10.545,1.045-15.745c0.41-1.405,0.908-2.785,1.475-4.136c2.502-5.98,7.103-11.497,12.681-15.477
				c5.198-3.71,11.649-6.005,18.036-6.272c4.389-0.184,8.768,0.319,12.967,1.617c1.144,0.354,2.27,0.762,3.377,1.218
				C1150.391,223.885,1152.682,225.211,1154.744,226.688z"/>
		</defs>
		<use xlink:href="#SVGID_28_"  overflow="visible" fill="#EC272C"/>
		<clipPath id="SVGID_29_">
			<use xlink:href="#SVGID_28_"  overflow="visible"/>
		</clipPath>
		<linearGradient id="SVGID_30_" gradientUnits="userSpaceOnUse" x1="1137.187" y1="279.9463" x2="1148.9565" y2="253.0503">
			<stop  offset="0" style="stop-color:#000000;stop-opacity:0"/>
			<stop  offset="0.9785" style="stop-color:#000000;stop-opacity:0.5"/>
		</linearGradient>
		<polygon clip-path="url(#SVGID_29_)" fill="url(#SVGID_30_)" points="1144.613,243.103 1120.051,270.949 1152.211,293.77 
			1165.555,258.521 1155.083,243.103 		"/>
		<linearGradient id="SVGID_31_" gradientUnits="userSpaceOnUse" x1="1117.6147" y1="254.4277" x2="1128.5066" y2="228.8281">
			<stop  offset="0" style="stop-color:#000000;stop-opacity:0"/>
			<stop  offset="0.9785" style="stop-color:#000000;stop-opacity:0.5"/>
		</linearGradient>
		<path clip-path="url(#SVGID_29_)" fill="url(#SVGID_31_)" d="M1095.315,266.341l29.282-16.124l29.468-15.384l6.046-3.464
			l-6.602-12.845c0,0-25.206-7.043-26.317-7.043c-1.112,0-28.171,9.823-28.171,9.823l-5.004,19.83L1095.315,266.341z"/>
	</g>
	<g>
		<defs>
			<path id="SVGID_32_" d="M1149.119,223.386c-2.929-1.433-7.197-1.351-10.332-1.312c-13.738,0.172-27.69,7.003-30.954,21.305
				c-1.879,8.233-2.517,17.634,3.904,24.142c2.04,2.069,5.402,3.385,8.314,3.429v-27.847h27.847l7.471-15.97l-2.509-1.799
				l-2.316-1.251L1149.119,223.386z"/>
		</defs>
		<use xlink:href="#SVGID_32_"  overflow="visible" fill="#DA1F26"/>
		<clipPath id="SVGID_33_">
			<use xlink:href="#SVGID_32_"  overflow="visible"/>
		</clipPath>
		<linearGradient id="SVGID_34_" gradientUnits="userSpaceOnUse" x1="1111.3169" y1="263.7002" x2="1115.1251" y2="239.5897">
			<stop  offset="0.0215" style="stop-color:#000000;stop-opacity:0.5"/>
			<stop  offset="1" style="stop-color:#000000;stop-opacity:0"/>
		</linearGradient>
		<polygon clip-path="url(#SVGID_33_)" fill="url(#SVGID_34_)" points="1098.16,230.383 1132.312,230.338 1124.622,254.966 
			1128.605,270.854 1116.837,273.293 1102.381,266.245 		"/>
	</g>
</g>
<rect x="1121.01" y="137.903" fill="#FFFFFF" width="27.846" height="27.847"/>
<g>
	<defs>
		<path id="SVGID_35_" d="M1169.162,141.101c-5.87-18.183-22.492-23.164-22.492-23.164c-25.621,0-25.659,19.967-25.659,19.967
			h27.846c0,0,13.574,2.66,12.462,24.9c-1.111,22.24-26.385,24.885-26.385,24.885s16.087,0.964,28.279-13.813
			C1175.404,159.098,1169.162,141.101,1169.162,141.101z"/>
	</defs>
	<use xlink:href="#SVGID_35_"  overflow="visible" fill="#DA1F26"/>
	<clipPath id="SVGID_36_">
		<use xlink:href="#SVGID_35_"  overflow="visible"/>
	</clipPath>
	<linearGradient id="SVGID_37_" gradientUnits="userSpaceOnUse" x1="1141.0425" y1="181.0615" x2="1172.5209" y2="155.5021">
		<stop  offset="0.0215" style="stop-color:#000000;stop-opacity:0.5"/>
		<stop  offset="1" style="stop-color:#000000;stop-opacity:0"/>
	</linearGradient>
	<polygon clip-path="url(#SVGID_36_)" fill="url(#SVGID_37_)" points="1159.101,145.846 1178.459,152.818 1161.224,185.227 
		1134.933,193.384 1130.644,183.653 	"/>
	<linearGradient id="SVGID_38_" gradientUnits="userSpaceOnUse" x1="1131.02" y1="127.3711" x2="1162.6195" y2="147.944">
		<stop  offset="0.0215" style="stop-color:#000000;stop-opacity:0.5"/>
		<stop  offset="1" style="stop-color:#000000;stop-opacity:0"/>
	</linearGradient>
	<polygon clip-path="url(#SVGID_36_)" fill="url(#SVGID_38_)" points="1114.242,143.899 1150.818,144.48 1158.444,154.742 
		1182.074,148.626 1155.664,115.965 1137.872,115.965 1121.009,120.27 	"/>
</g>
<linearGradient id="SVGID_39_" gradientUnits="userSpaceOnUse" x1="1132.2671" y1="-149.5737" x2="1139.6462" y2="-151.83">
	<stop  offset="0" style="stop-color:#000000;stop-opacity:0"/>
	<stop  offset="0.9785" style="stop-color:#000000;stop-opacity:0.5"/>
</linearGradient>
<line fill-rule="evenodd" clip-rule="evenodd" fill="url(#SVGID_39_)" x1="1129.259" y1="-152.414" x2="1147.104" y2="-150.349"/>
<line fill="none" stroke="#ABABAB" stroke-width="1.112" stroke-miterlimit="10" stroke-dasharray="5.56" x1="1028.647" y1="-68.603" x2="1570.66" y2="-68.603"/>
<line fill="none" stroke="#ABABAB" stroke-width="1.112" stroke-miterlimit="10" stroke-dasharray="5.56" x1="1028.647" y1="76.18" x2="1570.66" y2="76.18"/>
</svg>
